GSerif01-TextRegular03.ufo
<glyph name="A" format="1">
  <advance width="683"/>
  <unicode hex="0041"/>
  <outline>
    <contour>
      <point x="61" y="0" type="line"/>
      <point x="123" y="0" type="line"/>
      <point x="352" y="710" type="line"/>
      <point x="290" y="710" type="line"/>
    </contour>
    <contour>
      <point x="532" y="0" type="line"/>
      <point x="622" y="0" type="line"/>
      <point x="390" y="710" type="line"/>
      <point x="314" y="710" type="line"/>
      <point x="316" y="672" type="line"/>
    </contour>
    <contour>
      <point x="193" y="297" type="line"/>
      <point x="187" y="243" type="line"/>
      <point x="467" y="243" type="line"/>
      <point x="466" y="297" type="line"/>
    </contour>
    <contour>
      <point x="15" y="0" type="line"/>
      <point x="243" y="0" type="line"/>
      <point x="243" y="47" type="line"/>
      <point x="228" y="47" type="line"/>
      <point x="190" y="47"/>
      <point x="140" y="52"/>
      <point x="144" y="65" type="curve"/>
      <point x="90" y="90" type="line"/>
      <point x="77" y="53"/>
      <point x="57" y="47"/>
      <point x="20" y="47" type="curve"/>
      <point x="15" y="47" type="line"/>
    </contour>
    <contour>
      <point x="668" y="0" type="line"/>
      <point x="668" y="47" type="line"/>
      <point x="663" y="47" type="line"/>
      <point x="626" y="47"/>
      <point x="606" y="50"/>
      <point x="595" y="81" type="curve"/>
      <point x="513" y="57" type="line"/>
      <point x="513" y="50"/>
      <point x="465" y="47"/>
      <point x="427" y="47" type="curve"/>
      <point x="411" y="47" type="line"/>
      <point x="411" y="0" type="line"/>
    </contour>
  </outline>
</glyph>
<glyph name="D" format="1">
  <advance width="803"/>
  <unicode hex="0044"/>
  <outline>
    <contour>
      <point x="150" y="0" type="line"/>
      <point x="242" y="0" type="line"/>
      <point x="242" y="710" type="line"/>
      <point x="150" y="710" type="line"/>
    </contour>
    <contour>
      <point x="743" y="357" type="curve" smooth="yes"/>
      <point x="743" y="574"/>
      <point x="591" y="710"/>
      <point x="368" y="710" type="curve" smooth="yes"/>
      <point x="53" y="710" type="line"/>
      <point x="53" y="663" type="line"/>
      <point x="65" y="663" type="line" smooth="yes"/>
      <point x="114" y="663"/>
      <point x="150" y="654"/>
      <point x="150" y="627" type="curve"/>
      <point x="205" y="653" type="line"/>
      <point x="368" y="653" type="line" smooth="yes"/>
      <point x="539" y="653"/>
      <point x="645" y="546"/>
      <point x="645" y="357" type="curve" smooth="yes"/>
      <point x="645" y="168"/>
      <point x="539" y="57"/>
      <point x="368" y="57" type="curve" smooth="yes"/>
      <point x="218" y="57" type="line"/>
      <point x="150" y="83" type="line"/>
      <point x="150" y="54"/>
      <point x="114" y="47"/>
      <point x="65" y="47" type="curve" smooth="yes"/>
      <point x="53" y="47" type="line"/>
      <point x="53" y="0" type="line"/>
      <point x="368" y="0" type="line" smooth="yes"/>
      <point x="591" y="0"/>
      <point x="743" y="141"/>
    </contour>
  </outline>
</glyph>
<glyph name="E" format="1">
  <advance width="608"/>
  <unicode hex="0045"/>
  <outline>
    <contour>
      <point x="150" y="0" type="line"/>
      <point x="243" y="0" type="line"/>
      <point x="243" y="710" type="line"/>
      <point x="150" y="710" type="line"/>
    </contour>
    <contour>
      <point x="213" y="391" type="line"/>
      <point x="213" y="335" type="line"/>
      <point x="411" y="335" type="line"/>
      <point x="411" y="391" type="line"/>
    </contour>
    <contour>
      <point x="530" y="710" type="line"/>
      <point x="54" y="710" type="line"/>
      <point x="54" y="663" type="line"/>
      <point x="65" y="663" type="line"/>
      <point x="114" y="663"/>
      <point x="150" y="656"/>
      <point x="150" y="627" type="curve"/>
      <point x="206" y="653" type="line"/>
      <point x="340" y="653" type="line"/>
      <point x="426" y="653"/>
      <point x="461" y="646"/>
      <point x="465" y="610" type="curve"/>
      <point x="474" y="520" type="line"/>
      <point x="530" y="520" type="line"/>
    </contour>
    <contour>
      <point x="550" y="215" type="line"/>
      <point x="493" y="215" type="line"/>
      <point x="484" y="100" type="line"/>
      <point x="481" y="64"/>
      <point x="445" y="57"/>
      <point x="359" y="57" type="curve"/>
      <point x="198" y="57" type="line"/>
      <point x="150" y="83" type="line"/>
      <point x="150" y="54"/>
      <point x="114" y="47"/>
      <point x="65" y="47" type="curve"/>
      <point x="54" y="47" type="line"/>
      <point x="54" y="0" type="line"/>
      <point x="550" y="0" type="line"/>
    </contour>
  </outline>
</glyph>
<glyph name="F" format="1">
  <advance width="600"/>
  <unicode hex="0046"/>
  <outline>
    <contour>
      <point x="148" y="0" type="line"/>
      <point x="241" y="0" type="line"/>
      <point x="241" y="710" type="line"/>
      <point x="148" y="710" type="line"/>
    </contour>
    <contour>
      <point x="211" y="381" type="line"/>
      <point x="211" y="325" type="line"/>
      <point x="482" y="325" type="line"/>
      <point x="482" y="381" type="line"/>
    </contour>
    <contour>
      <point x="550" y="710" type="line"/>
      <point x="52" y="710" type="line"/>
      <point x="52" y="663" type="line"/>
      <point x="63" y="663" type="line" smooth="yes"/>
      <point x="112" y="663"/>
      <point x="148" y="656"/>
      <point x="148" y="627" type="curve"/>
      <point x="205" y="653" type="line"/>
      <point x="359" y="653" type="line" smooth="yes"/>
      <point x="445" y="653"/>
      <point x="480" y="646"/>
      <point x="484" y="610" type="curve" smooth="yes"/>
      <point x="493" y="520" type="line"/>
      <point x="550" y="520" type="line"/>
    </contour>
    <contour>
      <point x="52" y="0" type="line"/>
      <point x="353" y="0" type="line"/>
      <point x="353" y="47" type="line"/>
      <point x="336" y="47" type="line" smooth="yes"/>
      <point x="293" y="47"/>
      <point x="241" y="50"/>
      <point x="241" y="57" type="curve"/>
      <point x="148" y="83" type="line"/>
      <point x="148" y="54"/>
      <point x="112" y="47"/>
      <point x="63" y="47" type="curve" smooth="yes"/>
      <point x="52" y="47" type="line"/>
    </contour>
  </outline>
</glyph>
<glyph name="G" format="1">
  <advance width="823"/>
  <unicode hex="0047"/>
  <outline>
    <contour>
      <point x="159" y="355" type="curve" smooth="yes"/>
      <point x="159" y="538"/>
      <point x="275" y="658"/>
      <point x="430" y="658" type="curve" smooth="yes"/>
      <point x="545" y="658"/>
      <point x="633" y="593"/>
      <point x="658" y="497" type="curve"/>
      <point x="754" y="497" type="line"/>
      <point x="754" y="710" type="line"/>
      <point x="676" y="710" type="line"/>
      <point x="676" y="587" type="line"/>
      <point x="681" y="577"/>
      <point x="686" y="575"/>
      <point x="689" y="577" type="curve"/>
      <point x="653" y="663"/>
      <point x="549" y="720"/>
      <point x="428" y="720" type="curve" smooth="yes"/>
      <point x="224" y="720"/>
      <point x="62" y="569"/>
      <point x="62" y="355" type="curve" smooth="yes"/>
      <point x="62" y="137"/>
      <point x="211" y="-10"/>
      <point x="415" y="-10" type="curve" smooth="yes"/>
      <point x="574" y="-10"/>
      <point x="683" y="91"/>
      <point x="707" y="275" type="curve"/>
      <point x="691" y="270"/>
      <point x="685" y="249"/>
      <point x="672" y="227" type="curve"/>
      <point x="672" y="0" type="line"/>
      <point x="754" y="0" type="line"/>
      <point x="754" y="353" type="line"/>
      <point x="420" y="353" type="line"/>
      <point x="420" y="295" type="line"/>
      <point x="698" y="295" type="line"/>
      <point x="697" y="314"/>
      <point x="673" y="326"/>
      <point x="661" y="330" type="curve"/>
      <point x="661" y="311" type="line" smooth="yes"/>
      <point x="661" y="148"/>
      <point x="552" y="51"/>
      <point x="416" y="51" type="curve" smooth="yes"/>
      <point x="262" y="51"/>
      <point x="159" y="167"/>
    </contour>
  </outline>
</glyph>
<glyph name="H" format="1">
  <advance width="809"/>
  <unicode hex="0048"/>
  <outline>
    <contour>
      <point x="148" y="0" type="line"/>
      <point x="241" y="0" type="line"/>
      <point x="241" y="710" type="line"/>
      <point x="148" y="710" type="line"/>
    </contour>
    <contour>
      <point x="52" y="47" type="line"/>
      <point x="52" y="0" type="line"/>
      <point x="337" y="0" type="line"/>
      <point x="337" y="47" type="line"/>
      <point x="328" y="47" type="line" smooth="yes"/>
      <point x="290" y="47"/>
      <point x="241" y="50"/>
      <point x="241" y="57" type="curve"/>
      <point x="148" y="83" type="line"/>
      <point x="148" y="54"/>
      <point x="112" y="47"/>
      <point x="63" y="47" type="curve" smooth="yes"/>
    </contour>
    <contour>
      <point x="52" y="710" type="line"/>
      <point x="52" y="663" type="line"/>
      <point x="63" y="663" type="line" smooth="yes"/>
      <point x="112" y="663"/>
      <point x="148" y="656"/>
      <point x="148" y="627" type="curve"/>
      <point x="241" y="653" type="line"/>
      <point x="241" y="660"/>
      <point x="290" y="663"/>
      <point x="328" y="663" type="curve" smooth="yes"/>
      <point x="337" y="663" type="line"/>
      <point x="337" y="710" type="line"/>
    </contour>
    <contour>
      <point x="568" y="0" type="line"/>
      <point x="661" y="0" type="line"/>
      <point x="661" y="710" type="line"/>
      <point x="568" y="710" type="line"/>
    </contour>
    <contour>
      <point x="472" y="47" type="line"/>
      <point x="472" y="0" type="line"/>
      <point x="757" y="0" type="line"/>
      <point x="757" y="47" type="line"/>
      <point x="746" y="47" type="line" smooth="yes"/>
      <point x="697" y="47"/>
      <point x="661" y="54"/>
      <point x="661" y="83" type="curve"/>
      <point x="568" y="57" type="line"/>
      <point x="568" y="50"/>
      <point x="519" y="47"/>
      <point x="481" y="47" type="curve" smooth="yes"/>
    </contour>
    <contour>
      <point x="472" y="710" type="line"/>
      <point x="472" y="663" type="line"/>
      <point x="481" y="663" type="line" smooth="yes"/>
      <point x="519" y="663"/>
      <point x="568" y="660"/>
      <point x="568" y="653" type="curve"/>
      <point x="661" y="627" type="line"/>
      <point x="661" y="656"/>
      <point x="697" y="663"/>
      <point x="746" y="663" type="curve" smooth="yes"/>
      <point x="757" y="663" type="line"/>
      <point x="757" y="710" type="line"/>
    </contour>
    <contour>
      <point x="209" y="395" type="line"/>
      <point x="209" y="337" type="line"/>
      <point x="600" y="337" type="line"/>
      <point x="600" y="395" type="line"/>
    </contour>
  </outline>
</glyph>
<glyph name="L" format="1">
  <advance width="633"/>
  <unicode hex="004C"/>
  <outline>
    <contour>
      <point x="148" y="0" type="line"/>
      <point x="241" y="0" type="line"/>
      <point x="241" y="710" type="line"/>
      <point x="148" y="710" type="line"/>
    </contour>
    <contour>
      <point x="583" y="222" type="line"/>
      <point x="523" y="222" type="line"/>
      <point x="514" y="100" type="line" smooth="yes"/>
      <point x="511" y="64"/>
      <point x="475" y="57"/>
      <point x="389" y="57" type="curve" smooth="yes"/>
      <point x="196" y="57" type="line"/>
      <point x="148" y="83" type="line"/>
      <point x="148" y="54"/>
      <point x="112" y="47"/>
      <point x="63" y="47" type="curve" smooth="yes"/>
      <point x="52" y="47" type="line"/>
      <point x="52" y="0" type="line"/>
      <point x="583" y="0" type="line"/>
    </contour>
    <contour>
      <point x="52" y="710" type="line"/>
      <point x="52" y="663" type="line"/>
      <point x="63" y="663" type="line" smooth="yes"/>
      <point x="112" y="663"/>
      <point x="148" y="656"/>
      <point x="148" y="627" type="curve"/>
      <point x="241" y="627" type="line"/>
      <point x="241" y="656"/>
      <point x="278" y="663"/>
      <point x="330" y="663" type="curve" smooth="yes"/>
      <point x="341" y="663" type="line"/>
      <point x="341" y="710" type="line"/>
    </contour>
  </outline>
</glyph>
<glyph name="N" format="1">
  <advance width="780"/>
  <unicode hex="004E"/>
  <outline>
    <contour>
      <point x="461" y="710" type="line"/>
      <point x="461" y="663" type="line"/>
      <point x="475" y="663" type="line"/>
      <point x="518" y="663"/>
      <point x="567" y="660"/>
      <point x="567" y="653" type="curve"/>
      <point x="631" y="627" type="line"/>
      <point x="631" y="656"/>
      <point x="667" y="663"/>
      <point x="716" y="663" type="curve"/>
      <point x="728" y="663" type="line"/>
      <point x="728" y="710" type="line"/>
    </contour>
    <contour>
      <point x="271" y="710" type="line"/>
      <point x="52" y="710" type="line"/>
      <point x="52" y="663" type="line"/>
      <point x="63" y="663" type="line"/>
      <point x="112" y="663"/>
      <point x="148" y="656"/>
      <point x="148" y="627" type="curve"/>
      <point x="148" y="0" type="line"/>
      <point x="213" y="0" type="line"/>
      <point x="213" y="696" type="line"/>
      <point x="196" y="674" type="line"/>
      <point x="535" y="0" type="line"/>
      <point x="631" y="0" type="line"/>
      <point x="631" y="710" type="line"/>
      <point x="567" y="710" type="line"/>
      <point x="567" y="65" type="line"/>
      <point x="592" y="69" type="line"/>
    </contour>
    <contour>
      <point x="52" y="47" type="line"/>
      <point x="52" y="0" type="line"/>
      <point x="319" y="0" type="line"/>
      <point x="319" y="47" type="line"/>
      <point x="305" y="47" type="line"/>
      <point x="262" y="47"/>
      <point x="213" y="50"/>
      <point x="213" y="57" type="curve"/>
      <point x="148" y="83" type="line"/>
      <point x="148" y="54"/>
      <point x="112" y="47"/>
      <point x="63" y="47" type="curve"/>
    </contour>
  </outline>
</glyph>
<glyph name="O" format="1">
  <advance width="807"/>
  <unicode hex="004F"/>
  <outline>
    <contour>
      <point x="403" y="-10" type="curve" smooth="yes"/>
      <point x="600" y="-10"/>
      <point x="753" y="139"/>
      <point x="753" y="355" type="curve" smooth="yes"/>
      <point x="753" y="572"/>
      <point x="600" y="720"/>
      <point x="403" y="720" type="curve" smooth="yes"/>
      <point x="207" y="720"/>
      <point x="54" y="572"/>
      <point x="54" y="355" type="curve" smooth="yes"/>
      <point x="54" y="139"/>
      <point x="207" y="-10"/>
    </contour>
    <contour>
      <point x="403" y="50" type="curve" smooth="yes"/>
      <point x="257" y="50"/>
      <point x="152" y="168"/>
      <point x="152" y="355" type="curve" smooth="yes"/>
      <point x="152" y="542"/>
      <point x="257" y="660"/>
      <point x="403" y="660" type="curve" smooth="yes"/>
      <point x="549" y="660"/>
      <point x="655" y="542"/>
      <point x="655" y="355" type="curve" smooth="yes"/>
      <point x="655" y="168"/>
      <point x="549" y="50"/>
    </contour>
  </outline>
</glyph>
<glyph name="P" format="1">
  <advance width="682"/>
  <unicode hex="0050"/>
  <outline>
    <contour>
      <point x="151" y="0" type="line"/>
      <point x="244" y="0" type="line"/>
      <point x="244" y="710" type="line"/>
      <point x="151" y="710" type="line"/>
    </contour>
    <contour>
      <point x="239" y="653" type="line"/>
      <point x="364" y="653" type="line" smooth="yes"/>
      <point x="476" y="653"/>
      <point x="531" y="596"/>
      <point x="531" y="500" type="curve"/>
      <point x="531" y="404"/>
      <point x="476" y="340"/>
      <point x="359" y="340" type="curve" smooth="yes"/>
      <point x="200" y="340" type="line"/>
      <point x="200" y="285" type="line"/>
      <point x="360" y="285" type="line" smooth="yes"/>
      <point x="526" y="285"/>
      <point x="628" y="374"/>
      <point x="628" y="501" type="curve"/>
      <point x="628" y="628"/>
      <point x="531" y="710"/>
      <point x="365" y="710" type="curve" smooth="yes"/>
      <point x="55" y="710" type="line"/>
      <point x="55" y="663" type="line"/>
      <point x="66" y="663" type="line" smooth="yes"/>
      <point x="115" y="663"/>
      <point x="151" y="656"/>
      <point x="151" y="627" type="curve"/>
    </contour>
    <contour>
      <point x="336" y="0" type="line"/>
      <point x="336" y="47" type="line"/>
      <point x="321" y="47" type="line" smooth="yes"/>
      <point x="287" y="47"/>
      <point x="244" y="50"/>
      <point x="244" y="57" type="curve"/>
      <point x="151" y="83" type="line"/>
      <point x="151" y="54"/>
      <point x="115" y="47"/>
      <point x="66" y="47" type="curve" smooth="yes"/>
      <point x="55" y="47" type="line"/>
      <point x="55" y="0" type="line"/>
    </contour>
  </outline>
</glyph>
<glyph name="R" format="1">
  <advance width="680"/>
  <unicode hex="0052"/>
  <outline>
    <contour>
      <point x="148" y="0" type="line"/>
      <point x="241" y="0" type="line"/>
      <point x="241" y="710" type="line"/>
      <point x="148" y="710" type="line"/>
    </contour>
    <contour>
      <point x="319" y="303" type="line" smooth="yes"/>
      <point x="481" y="303"/>
      <point x="583" y="384"/>
      <point x="583" y="506" type="curve" smooth="yes"/>
      <point x="583" y="628"/>
      <point x="486" y="710"/>
      <point x="325" y="710" type="curve" smooth="yes"/>
      <point x="52" y="710" type="line"/>
      <point x="52" y="663" type="line"/>
      <point x="63" y="663" type="line"/>
      <point x="112" y="663"/>
      <point x="148" y="656"/>
      <point x="148" y="627" type="curve"/>
      <point x="200" y="653" type="line"/>
      <point x="323" y="653" type="line" smooth="yes"/>
      <point x="429" y="653"/>
      <point x="483" y="596"/>
      <point x="483" y="506" type="curve" smooth="yes"/>
      <point x="483" y="414"/>
      <point x="432" y="357"/>
      <point x="319" y="357" type="curve" smooth="yes"/>
      <point x="197" y="357" type="line"/>
      <point x="197" y="303" type="line"/>
    </contour>
    <contour>
      <point x="343" y="321" type="line"/>
      <point x="511" y="0" type="line"/>
      <point x="617" y="0" type="line"/>
      <point x="605" y="29" type="line"/>
      <point x="432" y="336" type="line"/>
    </contour>
    <contour>
      <point x="657" y="0" type="line"/>
      <point x="657" y="47" type="line"/>
      <point x="648" y="47" type="line"/>
      <point x="610" y="47"/>
      <point x="592" y="51"/>
      <point x="574" y="82" type="curve"/>
      <point x="566" y="0" type="line"/>
    </contour>
    <contour>
      <point x="52" y="47" type="line"/>
      <point x="52" y="0" type="line"/>
      <point x="327" y="0" type="line"/>
      <point x="327" y="47" type="line"/>
      <point x="318" y="47" type="line" smooth="yes"/>
      <point x="284.367816091954" y="47"/>
      <point x="241.0" y="50.0"/>
      <point x="241" y="57" type="curve"/>
      <point x="148" y="83" type="line"/>
      <point x="148" y="54"/>
      <point x="112" y="47"/>
      <point x="63" y="47" type="curve" smooth="yes"/>
    </contour>
  </outline>
</glyph>
<glyph name="W" format="1">
  <advance width="1065"/>
  <unicode hex="0057"/>
  <outline>
    <contour>
      <point x="159" y="710" type="line"/>
      <point x="69" y="710" type="line"/>
      <point x="271" y="0" type="line"/>
      <point x="347" y="0" type="line"/>
      <point x="345" y="38" type="line"/>
    </contour>
    <contour>
      <point x="19" y="710" type="line"/>
      <point x="19" y="663" type="line"/>
      <point x="24" y="663" type="line" smooth="yes"/>
      <point x="61" y="663"/>
      <point x="81" y="660"/>
      <point x="92" y="629" type="curve"/>
      <point x="175" y="653" type="line"/>
      <point x="175" y="660"/>
      <point x="223" y="663"/>
      <point x="261" y="663" type="curve" smooth="yes"/>
      <point x="278" y="663" type="line"/>
      <point x="278" y="710" type="line"/>
    </contour>
    <contour>
      <point x="996" y="710" type="line"/>
      <point x="934" y="710" type="line"/>
      <point x="749" y="0" type="line"/>
      <point x="807" y="0" type="line"/>
    </contour>
    <contour>
      <point x="1046" y="710" type="line"/>
      <point x="818" y="710" type="line"/>
      <point x="818" y="663" type="line"/>
      <point x="833" y="663" type="line" smooth="yes"/>
      <point x="871" y="663"/>
      <point x="917" y="656"/>
      <point x="917" y="645" type="curve"/>
      <point x="971" y="617" type="line"/>
      <point x="981" y="654"/>
      <point x="1004" y="663"/>
      <point x="1041" y="663" type="curve" smooth="yes"/>
      <point x="1046" y="663" type="line"/>
    </contour>
    <contour>
      <point x="594" y="710" type="line"/>
      <point x="499" y="710" type="line"/>
      <point x="315.0" y="0.0" type="line"/>
      <point x="371.0" y="0.0" type="line"/>
      <point x="544" y="655" type="line"/>
      <point x="523" y="655" type="line"/>
      <point x="707.0" y="0.0" type="line"/>
      <point x="783.0" y="0.0" type="line"/>
      <point x="781.0" y="38.0" type="line"/>
    </contour>
  </outline>
</glyph>
<glyph name="b" format="1">
  <advance width="682"/>
  <unicode hex="0062"/>
  <outline>
    <contour>
      <point x="535" y="273" type="curve" smooth="yes"/>
      <point x="535.0" y="405.611111111"/>
      <point x="480.0" y="490.0"/>
      <point x="381" y="490" type="curve" smooth="yes"/>
      <point x="296" y="490"/>
      <point x="229" y="438"/>
      <point x="184" y="339" type="curve"/>
      <point x="146" y="362" type="line"/>
      <point x="218" y="491"/>
      <point x="278" y="550"/>
      <point x="387" y="550" type="curve" smooth="yes"/>
      <point x="532.0" y="550.0"/>
      <point x="629.0" y="439.601449275"/>
      <point x="629" y="273" type="curve" smooth="yes"/>
      <point x="629" y="105"/>
      <point x="529" y="-11"/>
      <point x="379" y="-11" type="curve" smooth="yes"/>
      <point x="273" y="-11"/>
      <point x="211" y="43"/>
      <point x="144" y="172" type="curve"/>
      <point x="183" y="194" type="line"/>
      <point x="228" y="96"/>
      <point x="295" y="49"/>
      <point x="377" y="49" type="curve" smooth="yes"/>
      <point x="480" y="49"/>
      <point x="535" y="139"/>
    </contour>
    <contour>
      <point x="117" y="654" type="line" smooth="yes"/>
      <point x="117" y="683.0"/>
      <point x="92.9218643733" y="689.559661023"/>
      <point x="41" y="699" type="curve" smooth="yes"/>
      <point x="30" y="701" type="line"/>
      <point x="30" y="750" type="line"/>
      <point x="206" y="750" type="line"/>
      <point x="206" y="121" type="line"/>
      <point x="196" y="106" type="line"/>
      <point x="177" y="-3" type="line"/>
      <point x="117" y="-3" type="line"/>
    </contour>
  </outline>
</glyph>
<glyph name="c" format="1">
  <advance width="589"/>
  <unicode hex="0063"/>
  <outline>
    <contour>
      <point x="331" y="-12" type="curve" smooth="yes"/>
      <point x="441" y="-12"/>
      <point x="508" y="43"/>
      <point x="549" y="110" type="curve"/>
      <point x="500" y="147" type="line"/>
      <point x="469" y="102"/>
      <point x="425" y="48"/>
      <point x="334" y="48" type="curve" smooth="yes"/>
      <point x="226" y="48"/>
      <point x="147" y="134"/>
      <point x="147" y="263" type="curve" smooth="yes"/>
      <point x="147" y="399"/>
      <point x="219" y="488"/>
      <point x="327" y="488" type="curve" smooth="yes"/>
      <point x="405" y="488"/>
      <point x="457" y="448"/>
      <point x="480" y="392" type="curve"/>
      <point x="488" y="438"/>
      <point x="478" y="461"/>
      <point x="451" y="459" type="curve"/>
      <point x="451" y="353" type="line"/>
      <point x="539" y="353" type="line"/>
      <point x="539" y="444" type="line"/>
      <point x="514" y="496"/>
      <point x="436" y="548"/>
      <point x="327" y="548" type="curve" smooth="yes"/>
      <point x="168" y="548"/>
      <point x="53" y="429"/>
      <point x="53" y="263" type="curve" smooth="yes"/>
      <point x="53" y="103"/>
      <point x="175" y="-12"/>
    </contour>
  </outline>
</glyph>
<glyph name="d" format="1">
  <advance width="680"/>
  <unicode hex="0064"/>
  <outline>
    <contour>
      <point x="147" y="266" type="curve" smooth="yes"/>
      <point x="147" y="402"/>
      <point x="203" y="490"/>
      <point x="307" y="490" type="curve" smooth="yes"/>
      <point x="390" y="490"/>
      <point x="456" y="445"/>
      <point x="499" y="345" type="curve"/>
      <point x="538" y="367" type="line"/>
      <point x="474" y="497"/>
      <point x="412" y="550"/>
      <point x="304" y="550" type="curve" smooth="yes"/>
      <point x="154" y="550"/>
      <point x="53" y="435"/>
      <point x="53" y="266" type="curve" smooth="yes"/>
      <point x="53" y="100"/>
      <point x="151" y="-11"/>
      <point x="298" y="-11" type="curve" smooth="yes"/>
      <point x="406" y="-11"/>
      <point x="466" y="48"/>
      <point x="536" y="177" type="curve"/>
      <point x="498" y="199" type="line"/>
      <point x="455" y="101"/>
      <point x="389" y="49"/>
      <point x="304" y="49" type="curve" smooth="yes"/>
      <point x="203" y="49"/>
      <point x="147" y="134"/>
    </contour>
    <contour>
      <point x="477" y="654" type="curve" smooth="yes"/>
      <point x="477" y="115" type="line"/>
      <point x="485" y="112" type="line"/>
      <point x="485" y="0" type="line"/>
      <point x="652" y="0" type="line"/>
      <point x="652" y="45" type="line"/>
      <point x="651" y="45" type="line"/>
      <point x="602" y="45"/>
      <point x="566" y="52"/>
      <point x="566" y="81" type="curve"/>
      <point x="566" y="750" type="line"/>
      <point x="390" y="750" type="line"/>
      <point x="390" y="701" type="line"/>
      <point x="401" y="699" type="line" smooth="yes"/>
      <point x="453" y="690"/>
      <point x="477" y="683"/>
    </contour>
  </outline>
</glyph>
<glyph name="e" format="1">
  <advance width="576"/>
  <unicode hex="0065"/>
  <outline>
    <contour>
      <point x="318" y="-12" type="curve" smooth="yes"/>
      <point x="425" y="-12"/>
      <point x="491" y="40"/>
      <point x="529" y="105" type="curve"/>
      <point x="480" y="142" type="line"/>
      <point x="451" y="99"/>
      <point x="407" y="48"/>
      <point x="321" y="48" type="curve" smooth="yes"/>
      <point x="220" y="48"/>
      <point x="144" y="125"/>
      <point x="144" y="264" type="curve" smooth="yes"/>
      <point x="144" y="404"/>
      <point x="214" y="490"/>
      <point x="302" y="490" type="curve" smooth="yes"/>
      <point x="393" y="490"/>
      <point x="435" y="422"/>
      <point x="437" y="280" type="curve"/>
      <point x="465" y="302" type="line"/>
      <point x="113" y="302" type="line"/>
      <point x="114" y="246" type="line"/>
      <point x="532" y="246" type="line"/>
      <point x="531" y="449"/>
      <point x="451" y="550"/>
      <point x="302" y="550" type="curve" smooth="yes"/>
      <point x="163" y="550"/>
      <point x="53" y="435"/>
      <point x="53" y="266" type="curve" smooth="yes"/>
      <point x="53" y="96"/>
      <point x="168" y="-12"/>
    </contour>
  </outline>
</glyph>
<glyph name="f" format="1">
  <advance width="414"/>
  <unicode hex="0066"/>
  <outline>
    <contour>
      <point x="41" y="43" type="line"/>
      <point x="41" y="0" type="line"/>
      <point x="351" y="0" type="line"/>
      <point x="351" y="43" type="line"/>
      <point x="338" y="43" type="line"/>
      <point x="280" y="43"/>
      <point x="236" y="46"/>
      <point x="236" y="53" type="curve"/>
      <point x="147" y="79" type="line"/>
      <point x="147" y="50"/>
      <point x="111" y="43"/>
      <point x="52" y="43" type="curve"/>
    </contour>
    <contour>
      <point x="41" y="539" type="line"/>
      <point x="41" y="481" type="line"/>
      <point x="394" y="481" type="line"/>
      <point x="394" y="539" type="line"/>
    </contour>
    <contour>
      <point x="416" y="622" type="line"/>
      <point x="505" y="622" type="line"/>
      <point x="505" y="706" type="line"/>
      <point x="481" y="745"/>
      <point x="426" y="776"/>
      <point x="345" y="776" type="curve" smooth="yes"/>
      <point x="230" y="776"/>
      <point x="147" y="707"/>
      <point x="147" y="579" type="curve"/>
      <point x="147" y="0" type="line"/>
      <point x="236" y="0" type="line"/>
      <point x="236" y="579" type="line"/>
      <point x="236" y="677"/>
      <point x="275" y="720"/>
      <point x="345" y="720" type="curve" smooth="yes"/>
      <point x="392" y="720"/>
      <point x="426" y="701"/>
      <point x="447" y="658" type="curve"/>
      <point x="463" y="682"/>
      <point x="445" y="712"/>
      <point x="416" y="711" type="curve"/>
    </contour>
  </outline>
</glyph>
<glyph name="g" format="1">
  <advance width="596"/>
  <unicode hex="0067"/>
  <outline>
    <contour>
      <point x="270" y="-252" type="curve"/>
      <point x="307" y="-252" type="line"/>
      <point x="448" y="-252"/>
      <point x="571" y="-194"/>
      <point x="571" y="-73" type="curve" smooth="yes"/>
      <point x="571" y="14"/>
      <point x="507" y="57"/>
      <point x="388" y="57" type="curve" smooth="yes"/>
      <point x="224" y="57" type="line" smooth="yes"/>
      <point x="171" y="57"/>
      <point x="141" y="69"/>
      <point x="141" y="105" type="curve" smooth="yes"/>
      <point x="141" y="139"/>
      <point x="172" y="169"/>
      <point x="221" y="191" type="curve"/>
      <point x="242" y="223"/>
      <point x="185" y="244"/>
      <point x="168" y="211" type="curve"/>
      <point x="95" y="177"/>
      <point x="59" y="129"/>
      <point x="59" y="80" type="curve" smooth="yes"/>
      <point x="59" y="44"/>
      <point x="76" y="6"/>
      <point x="125" y="-17" type="curve"/>
      <point x="121" y="-23"/>
      <point x="114" y="-19"/>
      <point x="119" y="-29" type="curve"/>
      <point x="387" y="-29" type="line" smooth="yes"/>
      <point x="465" y="-29"/>
      <point x="488" y="-48"/>
      <point x="488" y="-89" type="curve" smooth="yes"/>
      <point x="488" y="-148"/>
      <point x="411" y="-192"/>
      <point x="306" y="-192" type="curve"/>
      <point x="271" y="-192" type="line"/>
      <point x="157" y="-192"/>
      <point x="104" y="-162"/>
      <point x="104" y="-111" type="curve" smooth="yes"/>
      <point x="104" y="-74"/>
      <point x="125" y="-43"/>
      <point x="176" y="-18" type="curve"/>
      <point x="139" y="8" type="line"/>
      <point x="61" y="-28"/>
      <point x="25" y="-64"/>
      <point x="25" y="-115" type="curve"/>
      <point x="25" y="-212"/>
      <point x="136" y="-252"/>
    </contour>
    <contour>
      <point x="167" y="355" type="curve" smooth="yes"/>
      <point x="167" y="440"/>
      <point x="214" y="490"/>
      <point x="285" y="490" type="curve" smooth="yes"/>
      <point x="357" y="490"/>
      <point x="404" y="440"/>
      <point x="404" y="355" type="curve" smooth="yes"/>
      <point x="404" y="270"/>
      <point x="357" y="223"/>
      <point x="285" y="223" type="curve" smooth="yes"/>
      <point x="213" y="223"/>
      <point x="167" y="270"/>
    </contour>
    <contour>
      <point x="285" y="163" type="curve" smooth="yes"/>
      <point x="405" y="163"/>
      <point x="494" y="238"/>
      <point x="494" y="355" type="curve" smooth="yes"/>
      <point x="494" y="471"/>
      <point x="404" y="550"/>
      <point x="285" y="550" type="curve" smooth="yes"/>
      <point x="166" y="550"/>
      <point x="77" y="471"/>
      <point x="77" y="355" type="curve" smooth="yes"/>
      <point x="77" y="238"/>
      <point x="165" y="163"/>
    </contour>
    <contour>
      <point x="411" y="459" type="curve"/>
      <point x="424" y="444" type="line"/>
      <point x="449" y="477"/>
      <point x="483" y="480"/>
      <point x="566" y="473" type="curve"/>
      <point x="566" y="555" type="line"/>
      <point x="500" y="560"/>
      <point x="450" y="524"/>
    </contour>
  </outline>
</glyph>
<glyph name="i" format="1">
  <advance width="333"/>
  <unicode hex="0069"/>
  <outline>
    <contour>
      <point x="46" y="0" type="line"/>
      <point x="302" y="0" type="line"/>
      <point x="302" y="42" type="line"/>
      <point x="303" y="42" type="line"/>
      <point x="254" y="42"/>
      <point x="218" y="49"/>
      <point x="218" y="78" type="curve"/>
      <point x="129" y="78" type="line"/>
      <point x="127" y="49"/>
      <point x="91" y="42"/>
      <point x="44" y="42" type="curve"/>
      <point x="46" y="42" type="line"/>
    </contour>
    <contour>
      <point x="46" y="539" type="line"/>
      <point x="46" y="490" type="line"/>
      <point x="53" y="488" type="line"/>
      <point x="105" y="481"/>
      <point x="129" y="472"/>
      <point x="129" y="443" type="curve"/>
      <point x="129" y="0" type="line"/>
      <point x="218" y="0" type="line"/>
      <point x="218" y="539" type="line"/>
    </contour>
    <contour>
      <point x="171" y="642" type="curve" smooth="yes"/>
      <point x="206" y="642"/>
      <point x="232" y="665"/>
      <point x="232" y="703" type="curve" smooth="yes"/>
      <point x="232" y="740"/>
      <point x="206" y="763"/>
      <point x="171" y="763" type="curve" smooth="yes"/>
      <point x="136" y="763"/>
      <point x="110" y="740"/>
      <point x="110" y="703" type="curve" smooth="yes"/>
      <point x="110" y="665"/>
      <point x="136" y="642"/>
    </contour>
  </outline>
</glyph>
<glyph name="k" format="1">
  <advance width="640"/>
  <unicode hex="006B"/>
  <outline>
    <contour>
      <point x="620" y="0" type="line"/>
      <point x="620" y="60" type="line"/>
      <point x="561" y="60" type="line"/>
      <point x="561" y="60" type="line"/>
      <point x="445" y="59" type="line"/>
      <point x="445" y="59" type="line"/>
      <point x="369" y="59" type="line"/>
      <point x="369" y="0" type="line"/>
    </contour>
    <contour>
      <point x="587" y="471" type="line"/>
      <point x="587" y="528" type="line"/>
      <point x="351" y="528" type="line"/>
      <point x="351" y="472" type="line"/>
      <point x="424" y="472" type="line"/>
      <point x="424" y="472" type="line"/>
      <point x="520" y="471" type="line"/>
      <point x="520" y="471" type="line"/>
    </contour>
    <contour>
      <point x="323" y="312" type="line"/>
      <point x="311" y="274" type="line"/>
      <point x="548" y="502" type="line"/>
      <point x="532" y="528" type="line"/>
      <point x="498" y="528" type="line"/>
      <point x="243" y="283" type="line"/>
      <point x="243" y="278" type="line"/>
      <point x="499" y="0" type="line"/>
      <point x="579" y="0" type="line"/>
      <point x="580" y="40" type="line"/>
    </contour>
    <contour>
      <point x="46" y="0" type="line"/>
      <point x="299" y="0" type="line"/>
      <point x="299" y="45" type="line"/>
      <point x="299" y="45" type="line"/>
      <point x="271" y="45"/>
      <point x="222" y="48"/>
      <point x="222" y="55" type="curve"/>
      <point x="133" y="81" type="line"/>
      <point x="133" y="52"/>
      <point x="97" y="45"/>
      <point x="48" y="45" type="curve"/>
      <point x="46" y="45" type="line"/>
    </contour>
    <contour>
      <point x="46" y="750" type="line"/>
      <point x="46" y="701" type="line"/>
      <point x="57" y="699" type="line" smooth="yes"/>
      <point x="109" y="690"/>
      <point x="133" y="683"/>
      <point x="133" y="654" type="curve" smooth="yes"/>
      <point x="133" y="0" type="line"/>
      <point x="222" y="0" type="line"/>
      <point x="222" y="750" type="line"/>
    </contour>
  </outline>
</glyph>
<glyph name="n" format="1">
  <advance width="677"/>
  <unicode hex="006E"/>
  <outline>
    <contour>
      <point x="45" y="0" type="line"/>
      <point x="297" y="0" type="line"/>
      <point x="297" y="45" type="line"/>
      <point x="297" y="45" type="line"/>
      <point x="269" y="45"/>
      <point x="220" y="48"/>
      <point x="220" y="55" type="curve"/>
      <point x="131" y="81" type="line"/>
      <point x="131" y="52"/>
      <point x="95" y="45"/>
      <point x="46" y="45" type="curve"/>
      <point x="45" y="45" type="line"/>
    </contour>
    <contour>
      <point x="395" y="0" type="line"/>
      <point x="647" y="0" type="line"/>
      <point x="647" y="45" type="line"/>
      <point x="646" y="45" type="line"/>
      <point x="597" y="45"/>
      <point x="561" y="52"/>
      <point x="561" y="81" type="curve"/>
      <point x="472" y="55" type="line"/>
      <point x="472" y="48"/>
      <point x="423" y="45"/>
      <point x="395" y="45" type="curve"/>
      <point x="395" y="45" type="line"/>
    </contour>
    <contour>
      <point x="380" y="487" type="curve" smooth="yes"/>
      <point x="450" y="487"/>
      <point x="472" y="453"/>
      <point x="472" y="378" type="curve" smooth="yes"/>
      <point x="472" y="0" type="line"/>
      <point x="561" y="0" type="line"/>
      <point x="561" y="389" type="line" smooth="yes"/>
      <point x="561" y="500"/>
      <point x="494" y="550"/>
      <point x="395" y="550" type="curve" smooth="yes"/>
      <point x="293" y="550"/>
      <point x="231" y="494"/>
      <point x="161" y="376" type="curve"/>
      <point x="191" y="351" type="line"/>
      <point x="240" y="441"/>
      <point x="304" y="487"/>
    </contour>
    <contour>
      <point x="45" y="540" type="line"/>
      <point x="45" y="491" type="line"/>
      <point x="55" y="489" type="line" smooth="yes"/>
      <point x="106" y="479"/>
      <point x="131" y="473"/>
      <point x="131" y="444" type="curve" smooth="yes"/>
      <point x="131" y="0" type="line"/>
      <point x="220" y="0" type="line"/>
      <point x="220" y="423" type="line"/>
      <point x="211" y="434" type="line"/>
      <point x="211" y="540" type="line"/>
    </contour>
  </outline>
</glyph>
<glyph name="o" format="1">
  <advance width="644"/>
  <unicode hex="006F"/>
  <outline>
    <contour>
      <point x="322" y="-12" type="curve"/>
      <point x="478" y="-12"/>
      <point x="591" y="101"/>
      <point x="591" y="268" type="curve" smooth="yes"/>
      <point x="591" y="434"/>
      <point x="478" y="548"/>
      <point x="322" y="548" type="curve" smooth="yes"/>
      <point x="166" y="548"/>
      <point x="53" y="435"/>
      <point x="53" y="268" type="curve" smooth="yes"/>
      <point x="53" y="101"/>
      <point x="166" y="-12"/>
    </contour>
    <contour>
      <point x="322" y="48" type="curve"/>
      <point x="214" y="48"/>
      <point x="147" y="135"/>
      <point x="147" y="268" type="curve" smooth="yes"/>
      <point x="147" y="401"/>
      <point x="214" y="488"/>
      <point x="322" y="488" type="curve" smooth="yes"/>
      <point x="430" y="488"/>
      <point x="497" y="401"/>
      <point x="497" y="268" type="curve" smooth="yes"/>
      <point x="497" y="134"/>
      <point x="430" y="48"/>
    </contour>
  </outline>
</glyph>
<glyph name="p" format="1">
  <advance width="693"/>
  <unicode hex="0070"/>
  <outline>
    <contour>
      <point x="41" y="-223" type="line"/>
      <point x="322" y="-223" type="line"/>
      <point x="322" y="-183" type="line"/>
      <point x="313" y="-183" type="line"/>
      <point x="265" y="-183"/>
      <point x="216" y="-180"/>
      <point x="216" y="-173" type="curve"/>
      <point x="127" y="-147" type="line"/>
      <point x="127" y="-176"/>
      <point x="91" y="-183"/>
      <point x="42" y="-183" type="curve"/>
      <point x="41" y="-183" type="line"/>
    </contour>
    <contour>
      <point x="41" y="539" type="line"/>
      <point x="41" y="490" type="line"/>
      <point x="51" y="488" type="line"/>
      <point x="103" y="481"/>
      <point x="127" y="472"/>
      <point x="127" y="443" type="curve"/>
      <point x="127" y="-216" type="line"/>
      <point x="216" y="-216" type="line"/>
      <point x="216" y="420" type="line"/>
      <point x="207" y="432" type="line"/>
      <point x="207" y="539" type="line"/>
    </contour>
    <contour>
      <point x="546" y="273" type="curve" smooth="yes"/>
      <point x="546" y="139"/>
      <point x="490" y="49"/>
      <point x="387" y="49" type="curve" smooth="yes"/>
      <point x="305" y="49"/>
      <point x="239" y="97"/>
      <point x="194" y="194" type="curve"/>
      <point x="155" y="172" type="line"/>
      <point x="222" y="43"/>
      <point x="283" y="-11"/>
      <point x="390" y="-11" type="curve" smooth="yes"/>
      <point x="540" y="-11"/>
      <point x="640" y="105"/>
      <point x="640" y="273" type="curve" smooth="yes"/>
      <point x="640" y="439"/>
      <point x="543" y="549"/>
      <point x="397" y="549" type="curve" smooth="yes"/>
      <point x="289" y="549"/>
      <point x="228" y="490"/>
      <point x="156" y="361" type="curve"/>
      <point x="195" y="338" type="line"/>
      <point x="239" y="436"/>
      <point x="307" y="488"/>
      <point x="391" y="488" type="curve" smooth="yes"/>
      <point x="491" y="488"/>
      <point x="546" y="404"/>
    </contour>
  </outline>
</glyph>
<glyph name="q" format="1">
  <advance width="674"/>
  <unicode hex="0071"/>
  <outline>
    <contour>
      <point x="566" y="543" type="line"/>
      <point x="504" y="543" type="line"/>
      <point x="485" y="435" type="line"/>
      <point x="477" y="417" type="line"/>
      <point x="477" y="-210" type="line"/>
      <point x="566" y="-210" type="line"/>
    </contour>
    <contour>
      <point x="147" y="266" type="curve" smooth="yes"/>
      <point x="147.0" y="403.42152466367713"/>
      <point x="204.0" y="493.0"/>
      <point x="307" y="493" type="curve" smooth="yes"/>
      <point x="390.0" y="493.0"/>
      <point x="454.9866438867476" y="446.33307570260433"/>
      <point x="499" y="345" type="curve"/>
      <point x="538" y="367" type="line"/>
      <point x="474" y="497"/>
      <point x="412" y="550"/>
      <point x="304" y="550" type="curve" smooth="yes"/>
      <point x="154" y="550"/>
      <point x="53" y="435"/>
      <point x="53" y="266" type="curve" smooth="yes"/>
      <point x="53" y="100"/>
      <point x="151" y="-11"/>
      <point x="298" y="-11" type="curve" smooth="yes"/>
      <point x="407" y="-11"/>
      <point x="466" y="48"/>
      <point x="537" y="177" type="curve"/>
      <point x="498" y="199" type="line"/>
      <point x="454.02706882150824" y="99.80524827177436"/>
      <point x="389.0" y="46.0"/>
      <point x="304" y="46" type="curve" smooth="yes"/>
      <point x="204.0" y="46.0"/>
      <point x="147.0" y="132.57407407407408"/>
    </contour>
    <contour>
      <point x="652" y="-223" type="line"/>
      <point x="652" y="-178" type="line"/>
      <point x="651" y="-178" type="line"/>
      <point x="602" y="-178"/>
      <point x="566" y="-171"/>
      <point x="566" y="-142" type="curve"/>
      <point x="477" y="-168" type="line"/>
      <point x="477" y="-175"/>
      <point x="428" y="-178"/>
      <point x="400" y="-178" type="curve" smooth="yes"/>
      <point x="371" y="-178" type="line"/>
      <point x="371" y="-223" type="line"/>
    </contour>
  </outline>
</glyph>
<glyph name="u" format="1">
  <advance width="658"/>
  <unicode hex="0075"/>
  <outline>
    <contour>
      <point x="116" y="443" type="line" smooth="yes"/>
      <point x="116" y="472"/>
      <point x="92" y="479"/>
      <point x="40" y="488" type="curve" smooth="yes"/>
      <point x="28" y="490" type="line"/>
      <point x="28" y="538" type="line"/>
      <point x="205" y="538" type="line"/>
      <point x="205" y="162" type="line" smooth="yes"/>
      <point x="205" y="86"/>
      <point x="227" y="52"/>
      <point x="297" y="52" type="curve" smooth="yes"/>
      <point x="372" y="52"/>
      <point x="435" y="98"/>
      <point x="484" y="189" type="curve"/>
      <point x="514" y="163" type="line"/>
      <point x="444" y="45"/>
      <point x="383" y="-11"/>
      <point x="282" y="-11" type="curve" smooth="yes"/>
      <point x="184" y="-11"/>
      <point x="116" y="39"/>
      <point x="116" y="150" type="curve"/>
    </contour>
    <contour>
      <point x="453" y="443" type="line" smooth="yes"/>
      <point x="453" y="472"/>
      <point x="429" y="483"/>
      <point x="377" y="488" type="curve" smooth="yes"/>
      <point x="355" y="490" type="line"/>
      <point x="355" y="538" type="line"/>
      <point x="542" y="538" type="line"/>
      <point x="542" y="81" type="line"/>
      <point x="542" y="52"/>
      <point x="578" y="45"/>
      <point x="627" y="45" type="curve"/>
      <point x="630" y="45" type="line"/>
      <point x="630" y="0" type="line"/>
      <point x="462" y="0" type="line"/>
      <point x="462" y="104" type="line"/>
      <point x="453" y="117" type="line"/>
    </contour>
  </outline>
</glyph>
<glyph name="w" format="1">
  <advance width="859"/>
  <unicode hex="0077"/>
  <outline>
    <contour>
      <point x="256" y="528" type="line"/>
      <point x="9" y="528" type="line"/>
      <point x="9" y="471" type="line"/>
      <point x="69" y="471" type="line"/>
      <point x="69" y="471" type="line"/>
      <point x="160" y="471" type="line"/>
      <point x="160" y="471" type="line"/>
      <point x="256" y="471" type="line"/>
    </contour>
    <contour>
      <point x="277" y="0" type="line"/>
      <point x="275" y="37" type="line"/>
      <point x="144" y="528" type="line"/>
      <point x="53" y="526" type="line"/>
      <point x="203" y="0" type="line"/>
    </contour>
    <contour>
      <point x="606" y="0" type="line"/>
      <point x="649" y="0" type="line"/>
      <point x="797" y="526" type="line"/>
      <point x="735" y="528" type="line"/>
      <point x="607" y="42" type="line"/>
    </contour>
    <contour>
      <point x="626" y="528" type="line"/>
      <point x="626" y="471" type="line"/>
      <point x="720" y="471" type="line"/>
      <point x="720" y="471" type="line"/>
      <point x="781" y="471" type="line"/>
      <point x="781" y="471" type="line"/>
      <point x="843" y="471" type="line"/>
      <point x="843" y="528" type="line"/>
    </contour>
    <contour>
      <point x="414" y="458" type="line"/>
      <point x="553" y="0" type="line"/>
      <point x="628" y="0" type="line"/>
      <point x="624" y="37" type="line"/>
      <point x="478" y="528" type="line"/>
      <point x="402" y="528" type="line"/>
      <point x="257" y="44" type="line"/>
      <point x="255" y="0" type="line"/>
      <point x="297" y="0" type="line"/>
      <point x="438" y="465" type="line"/>
    </contour>
  </outline>
</glyph>
<glyph name="y" format="1">
  <advance width="603"/>
  <unicode hex="0079"/>
  <outline>
    <contour>
      <point x="255" y="528" type="line"/>
      <point x="5" y="528" type="line"/>
      <point x="5" y="471" type="line"/>
      <point x="76" y="471" type="line"/>
      <point x="76" y="471" type="line"/>
      <point x="167" y="471" type="line"/>
      <point x="167" y="471" type="line"/>
      <point x="255" y="471" type="line"/>
    </contour>
    <contour>
      <point x="326" y="8" type="line"/>
      <point x="338" y="45" type="line"/>
      <point x="144" y="528" type="line"/>
      <point x="53" y="526" type="line"/>
      <point x="275" y="-14" type="line"/>
    </contour>
    <contour>
      <point x="373" y="528" type="line"/>
      <point x="373" y="471" type="line"/>
      <point x="462" y="471" type="line"/>
      <point x="462" y="471" type="line"/>
      <point x="527" y="471" type="line"/>
      <point x="527" y="471" type="line"/>
      <point x="599" y="471" type="line"/>
      <point x="599" y="528" type="line"/>
    </contour>
    <contour>
      <point x="342" y="17" type="curve" smooth="yes"/>
      <point x="549" y="526" type="line"/>
      <point x="484" y="528" type="line"/>
      <point x="301" y="72" type="line"/>
      <point x="291" y="54" type="line" smooth="yes"/>
      <point x="223" y="-125"/>
      <point x="174" y="-146"/>
      <point x="51" y="-148" type="curve"/>
      <point x="51" y="-232" type="line"/>
      <point x="212" y="-233"/>
      <point x="272" y="-157"/>
    </contour>
  </outline>
</glyph>
<glyph name="C.alt" format="1">
  <advance width="803"/>
  <outline>
    <contour>
      <point x="429" y="-10" type="curve" smooth="yes"/>
      <point x="565" y="-10"/>
      <point x="668" y="52"/>
      <point x="702" y="105" type="curve"/>
      <point x="702" y="220" type="line"/>
      <point x="607" y="220" type="line"/>
      <point x="607" y="103" type="line"/>
      <point x="634" y="102"/>
      <point x="657" y="121"/>
      <point x="654" y="167" type="curve"/>
      <point x="621" y="108"/>
      <point x="545" y="63"/>
      <point x="429" y="63" type="curve" smooth="yes"/>
      <point x="267" y="63"/>
      <point x="155" y="179"/>
      <point x="155" y="355" type="curve" smooth="yes"/>
      <point x="155" y="531"/>
      <point x="264" y="647"/>
      <point x="433" y="647" type="curve" smooth="yes"/>
      <point x="539" y="647"/>
      <point x="620" y="596"/>
      <point x="648" y="537" type="curve"/>
      <point x="656" y="583"/>
      <point x="632" y="605"/>
      <point x="605" y="604" type="curve"/>
      <point x="605" y="487" type="line"/>
      <point x="702" y="487" type="line"/>
      <point x="702" y="607" type="line"/>
      <point x="672" y="660"/>
      <point x="571" y="720"/>
      <point x="433" y="720" type="curve" smooth="yes"/>
      <point x="216" y="720"/>
      <point x="63" y="569"/>
      <point x="63" y="355" type="curve" smooth="yes"/>
      <point x="63" y="138"/>
      <point x="217" y="-10"/>
    </contour>
  </outline>
</glyph>
<glyph name="E.alt" format="1">
  <advance width="648"/>
  <outline>
    <contour>
      <point x="148" y="0" type="line"/>
      <point x="241" y="0" type="line"/>
      <point x="241" y="710" type="line"/>
      <point x="148" y="710" type="line"/>
    </contour>
    <contour>
      <point x="211" y="391" type="line"/>
      <point x="211" y="335" type="line"/>
      <point x="437" y="335" type="line"/>
      <point x="437" y="391" type="line"/>
    </contour>
    <contour>
      <point x="563" y="710" type="line"/>
      <point x="52" y="710" type="line"/>
      <point x="52" y="663" type="line"/>
      <point x="63" y="663" type="line" smooth="yes"/>
      <point x="112" y="663"/>
      <point x="148" y="656"/>
      <point x="148" y="627" type="curve"/>
      <point x="204" y="653" type="line"/>
      <point x="373" y="653" type="line" smooth="yes"/>
      <point x="459" y="653"/>
      <point x="494" y="646"/>
      <point x="498" y="610" type="curve" smooth="yes"/>
      <point x="507" y="520" type="line"/>
      <point x="563" y="520" type="line"/>
    </contour>
    <contour>
      <point x="583" y="215" type="line"/>
      <point x="526" y="215" type="line"/>
      <point x="517" y="100" type="line" smooth="yes"/>
      <point x="514" y="64"/>
      <point x="478" y="57"/>
      <point x="392" y="57" type="curve" smooth="yes"/>
      <point x="196" y="57" type="line"/>
      <point x="148" y="83" type="line"/>
      <point x="148" y="54"/>
      <point x="112" y="47"/>
      <point x="63" y="47" type="curve" smooth="yes"/>
      <point x="52" y="47" type="line"/>
      <point x="52" y="0" type="line"/>
      <point x="583" y="0" type="line"/>
    </contour>
    <contour>
      <point x="458" y="264" type="line"/>
      <point x="458" y="463" type="line"/>
      <point x="413" y="463" type="line"/>
      <point x="413" y="457" type="line"/>
      <point x="413" y="422"/>
      <point x="403" y="391"/>
      <point x="374" y="391" type="curve"/>
      <point x="374" y="335" type="line"/>
      <point x="403" y="335"/>
      <point x="413" y="304"/>
      <point x="413" y="270" type="curve"/>
      <point x="413" y="264" type="line"/>
    </contour>
  </outline>
</glyph>
<glyph name="G.srf" format="1">
  <advance width="823"/>
  <outline>
    <contour>
      <point x="537" y="353" type="line"/>
      <point x="537" y="306" type="line"/>
      <point x="548" y="306" type="line" smooth="yes"/>
      <point x="597" y="306"/>
      <point x="633" y="299"/>
      <point x="633" y="270" type="curve"/>
      <point x="723" y="270" type="line"/>
      <point x="723" y="299"/>
      <point x="755" y="306"/>
      <point x="798" y="306" type="curve" smooth="yes"/>
      <point x="802" y="306" type="line"/>
      <point x="802" y="353" type="line"/>
    </contour>
    <contour>
      <point x="421" y="720" type="curve" smooth="yes"/>
      <point x="218" y="720"/>
      <point x="59" y="569"/>
      <point x="59" y="355" type="curve" smooth="yes"/>
      <point x="59" y="137"/>
      <point x="209" y="-10"/>
      <point x="435" y="-10" type="curve" smooth="yes"/>
      <point x="562" y="-10"/>
      <point x="683" y="59"/>
      <point x="723" y="121" type="curve"/>
      <point x="723" y="316" type="line"/>
      <point x="633" y="324" type="line"/>
      <point x="633" y="131" type="line"/>
      <point x="610" y="106"/>
      <point x="541" y="52"/>
      <point x="436" y="52" type="curve" smooth="yes"/>
      <point x="262" y="52"/>
      <point x="159" y="167"/>
      <point x="159" y="355" type="curve" smooth="yes"/>
      <point x="159" y="538"/>
      <point x="270" y="658"/>
      <point x="421" y="658" type="curve" smooth="yes"/>
      <point x="537" y="658"/>
      <point x="610" y="593"/>
      <point x="636" y="496" type="curve"/>
      <point x="727" y="496" type="line"/>
      <point x="727" y="710" type="line"/>
      <point x="669" y="710" type="line"/>
      <point x="655" y="545" type="line"/>
      <point x="658" y="541"/>
      <point x="664" y="566"/>
      <point x="675" y="558" type="curve"/>
      <point x="637" y="659"/>
      <point x="539" y="720"/>
    </contour>
  </outline>
</glyph>
<glyph name="K.alt" format="1">
  <advance width="737"/>
  <outline>
    <contour>
      <point x="573" y="0" type="line"/>
      <point x="656" y="0" type="line"/>
      <point x="662" y="30" type="line"/>
      <point x="366" y="406" type="line"/>
      <point x="344" y="341" type="line"/>
      <point x="620" y="676" type="line"/>
      <point x="617" y="710" type="line"/>
      <point x="574" y="710" type="line"/>
      <point x="292" y="368" type="line"/>
      <point x="304" y="346" type="line"/>
    </contour>
    <contour>
      <point x="52" y="47" type="line"/>
      <point x="52" y="0" type="line"/>
      <point x="337" y="0" type="line"/>
      <point x="337" y="47" type="line"/>
      <point x="328" y="47" type="line" smooth="yes"/>
      <point x="290" y="47"/>
      <point x="241" y="50"/>
      <point x="241" y="57" type="curve"/>
      <point x="148" y="83" type="line"/>
      <point x="148" y="54"/>
      <point x="112" y="47"/>
      <point x="63" y="47" type="curve" smooth="yes"/>
    </contour>
    <contour>
      <point x="52" y="710" type="line"/>
      <point x="52" y="663" type="line"/>
      <point x="63" y="663" type="line" smooth="yes"/>
      <point x="112" y="663"/>
      <point x="148" y="656"/>
      <point x="148" y="627" type="curve"/>
      <point x="241" y="653" type="line"/>
      <point x="241" y="660"/>
      <point x="290" y="663"/>
      <point x="328" y="663" type="curve" smooth="yes"/>
      <point x="337" y="663" type="line"/>
      <point x="337" y="710" type="line"/>
    </contour>
    <contour>
      <point x="727" y="47" type="line"/>
      <point x="716" y="47" type="line" smooth="yes"/>
      <point x="669" y="47"/>
      <point x="645" y="52"/>
      <point x="620" y="83" type="curve"/>
      <point x="529" y="57" type="line"/>
      <point x="529.0" y="50.0"/>
      <point x="484" y="47"/>
      <point x="449" y="47" type="curve" smooth="yes"/>
      <point x="440" y="47" type="line"/>
      <point x="440" y="0" type="line"/>
      <point x="727" y="0" type="line"/>
    </contour>
    <contour>
      <point x="682" y="710" type="line"/>
      <point x="438" y="710" type="line"/>
      <point x="438" y="663" type="line"/>
      <point x="447" y="663" type="line" smooth="yes"/>
      <point x="485" y="663"/>
      <point x="524" y="656"/>
      <point x="524" y="649" type="curve"/>
      <point x="574" y="620" type="line"/>
      <point x="599" y="650"/>
      <point x="625" y="663"/>
      <point x="666" y="663" type="curve" smooth="yes"/>
      <point x="682" y="663" type="line"/>
    </contour>
    <contour>
      <point x="148" y="0" type="line"/>
      <point x="241" y="0" type="line"/>
      <point x="241" y="710" type="line"/>
      <point x="148" y="710" type="line"/>
    </contour>
    <contour>
      <point x="213" y="396" type="line"/>
      <point x="213" y="337" type="line"/>
      <point x="341" y="337" type="line"/>
      <point x="341" y="396" type="line"/>
    </contour>
  </outline>
</glyph>
<glyph name="Q.alt2" format="1">
  <advance width="807"/>
  <outline>
    <contour>
      <point x="403" y="-10" type="curve" smooth="yes"/>
      <point x="600" y="-10"/>
      <point x="753" y="139"/>
      <point x="753" y="355" type="curve" smooth="yes"/>
      <point x="753" y="572"/>
      <point x="600" y="720"/>
      <point x="403" y="720" type="curve" smooth="yes"/>
      <point x="207" y="720"/>
      <point x="54" y="572"/>
      <point x="54" y="355" type="curve" smooth="yes"/>
      <point x="54" y="139"/>
      <point x="207" y="-10"/>
    </contour>
    <contour>
      <point x="403" y="50" type="curve" smooth="yes"/>
      <point x="257" y="50"/>
      <point x="152" y="168"/>
      <point x="152" y="355" type="curve" smooth="yes"/>
      <point x="152" y="542"/>
      <point x="257" y="660"/>
      <point x="403" y="660" type="curve" smooth="yes"/>
      <point x="549" y="660"/>
      <point x="655" y="542"/>
      <point x="655" y="355" type="curve" smooth="yes"/>
      <point x="655" y="168"/>
      <point x="549" y="50"/>
    </contour>
    <contour>
      <point x="209" y="-185" type="curve"/>
      <point x="263" y="-204" type="line"/>
      <point x="287" y="-145"/>
      <point x="324" y="-108"/>
      <point x="392" y="-108" type="curve" smooth="yes"/>
      <point x="466" y="-108"/>
      <point x="580" y="-147"/>
      <point x="717" y="-208" type="curve"/>
      <point x="748" y="-119" type="line"/>
      <point x="620" y="-73"/>
      <point x="511" y="-47"/>
      <point x="426" y="-47" type="curve" smooth="yes"/>
      <point x="305" y="-47"/>
      <point x="249" y="-94"/>
    </contour>
  </outline>
</glyph>
<glyph name="S.srf" format="1">
  <advance width="768"/>
  <outline>
    <contour>
      <point x="387" y="168" type="curve" smooth="yes"/>
      <point x="323" y="168"/>
      <point x="304" y="209"/>
      <point x="298" y="239" type="curve"/>
      <point x="3" y="239" type="line"/>
      <point x="3" y="0" type="line"/>
      <point x="231" y="0" type="line"/>
      <point x="231" y="150" type="line"/>
      <point x="204" y="200"/>
      <point x="201" y="184"/>
      <point x="179" y="189" type="curve"/>
      <point x="191" y="76"/>
      <point x="278" y="-10"/>
      <point x="467" y="-10" type="curve" smooth="yes"/>
      <point x="652" y="-10"/>
      <point x="763" y="78"/>
      <point x="763" y="241" type="curve" smooth="yes"/>
      <point x="763" y="539"/>
      <point x="340" y="430"/>
      <point x="340" y="520" type="curve" smooth="yes"/>
      <point x="340" y="538"/>
      <point x="354" y="548"/>
      <point x="383" y="548" type="curve" smooth="yes"/>
      <point x="430" y="548"/>
      <point x="447" y="522"/>
      <point x="453" y="502" type="curve"/>
      <point x="743" y="502" type="line"/>
      <point x="743" y="710" type="line"/>
      <point x="520" y="710" type="line"/>
      <point x="520" y="566" type="line"/>
      <point x="547" y="516"/>
      <point x="550" y="547"/>
      <point x="568" y="545" type="curve"/>
      <point x="565" y="651"/>
      <point x="487" y="720"/>
      <point x="318" y="720" type="curve" smooth="yes"/>
      <point x="148" y="720"/>
      <point x="23" y="635"/>
      <point x="23" y="492" type="curve" smooth="yes"/>
      <point x="23" y="202"/>
      <point x="436" y="307"/>
      <point x="436" y="203" type="curve" smooth="yes"/>
      <point x="436" y="179"/>
      <point x="420" y="168"/>
    </contour>
  </outline>
</glyph>
<glyph name="W.alt" format="1">
  <advance width="1123"/>
  <outline>
    <contour>
      <point x="172" y="710" type="line"/>
      <point x="85" y="710" type="line"/>
      <point x="296" y="0" type="line"/>
      <point x="375" y="0" type="line"/>
      <point x="368" y="32" type="line"/>
    </contour>
    <contour>
      <point x="29" y="710" type="line"/>
      <point x="29" y="655" type="line"/>
      <point x="101" y="655" type="line"/>
      <point x="101" y="655" type="line"/>
      <point x="188" y="655" type="line"/>
      <point x="188" y="655" type="line"/>
      <point x="292" y="655" type="line"/>
      <point x="292" y="710" type="line"/>
    </contour>
    <contour>
      <point x="1038" y="710" type="line"/>
      <point x="976" y="710" type="line"/>
      <point x="768" y="0" type="line"/>
      <point x="827" y="0" type="line"/>
    </contour>
    <contour>
      <point x="1094" y="710" type="line"/>
      <point x="856" y="710" type="line"/>
      <point x="856" y="655" type="line"/>
      <point x="960" y="655" type="line"/>
      <point x="960" y="655" type="line"/>
      <point x="1022" y="655" type="line"/>
      <point x="1022" y="655" type="line"/>
      <point x="1094" y="655" type="line"/>
    </contour>
    <contour>
      <point x="436" y="710" type="line"/>
      <point x="436" y="655" type="line"/>
      <point x="529" y="655" type="line"/>
      <point x="529" y="655" type="line"/>
      <point x="612" y="655" type="line"/>
      <point x="612" y="655" type="line"/>
      <point x="704" y="655" type="line"/>
      <point x="704" y="710" type="line"/>
    </contour>
    <contour>
      <point x="572" y="612" type="line"/>
      <point x="543" y="618" type="line"/>
      <point x="730" y="0" type="line"/>
      <point x="809" y="0" type="line"/>
      <point x="800" y="32" type="line"/>
      <point x="596" y="710" type="line"/>
      <point x="546" y="710" type="line"/>
      <point x="334" y="0" type="line"/>
      <point x="393" y="0" type="line"/>
    </contour>
  </outline>
</glyph>
<glyph name="g.alt4" format="1">
  <advance width="647"/>
  <outline>
    <contour>
      <point x="295" y="-11" type="curve" smooth="yes"/>
      <point x="402" y="-11"/>
      <point x="462" y="50"/>
      <point x="536" y="174" type="curve"/>
      <point x="499" y="198" type="line"/>
      <point x="453" y="104"/>
      <point x="387" y="50"/>
      <point x="302" y="50" type="curve" smooth="yes"/>
      <point x="202" y="50"/>
      <point x="146" y="133"/>
      <point x="146" y="262" type="curve" smooth="yes"/>
      <point x="146" y="392"/>
      <point x="202" y="478"/>
      <point x="305" y="478" type="curve" smooth="yes"/>
      <point x="389" y="478"/>
      <point x="456" y="431"/>
      <point x="499" y="335" type="curve"/>
      <point x="538" y="358" type="line"/>
      <point x="474" y="485"/>
      <point x="410" y="538"/>
      <point x="304" y="538" type="curve" smooth="yes"/>
      <point x="152" y="538"/>
      <point x="52" y="425"/>
      <point x="52" y="262" type="curve" smooth="yes"/>
      <point x="52" y="98"/>
      <point x="148" y="-11"/>
    </contour>
    <contour>
      <point x="310" y="-247" type="curve" smooth="yes"/>
      <point x="471" y="-247"/>
      <point x="565" y="-153"/>
      <point x="565" y="19" type="curve" smooth="yes"/>
      <point x="565" y="531" type="line"/>
      <point x="503" y="531" type="line"/>
      <point x="484" y="425" type="line"/>
      <point x="476" y="408" type="line"/>
      <point x="476" y="18" type="line" smooth="yes"/>
      <point x="476" y="-125"/>
      <point x="409" y="-185"/>
      <point x="310" y="-185" type="curve" smooth="yes"/>
      <point x="221" y="-185"/>
      <point x="170" y="-146"/>
      <point x="159" y="-80" type="curve"/>
      <point x="67" y="-80" type="line"/>
      <point x="80" y="-181"/>
      <point x="165" y="-247"/>
    </contour>
  </outline>
</glyph>
<glyph name="k.alt" format="1">
  <advance width="651"/>
  <outline>
    <contour>
      <point x="500" y="0" type="line"/>
      <point x="573" y="0" type="line"/>
      <point x="574" y="40" type="line"/>
      <point x="327" y="319" type="line"/>
      <point x="319" y="279" type="line"/>
      <point x="558" y="514" type="line"/>
      <point x="542" y="540" type="line"/>
      <point x="507" y="540" type="line"/>
      <point x="250" y="289" type="line"/>
      <point x="250" y="284" type="line"/>
    </contour>
    <contour>
      <point x="46" y="0" type="line"/>
      <point x="298" y="0" type="line"/>
      <point x="298" y="45" type="line"/>
      <point x="298" y="45" type="line"/>
      <point x="270" y="45"/>
      <point x="221" y="48"/>
      <point x="221" y="55" type="curve"/>
      <point x="132" y="81" type="line"/>
      <point x="132" y="52"/>
      <point x="96" y="45"/>
      <point x="47" y="45" type="curve"/>
      <point x="46" y="45" type="line"/>
    </contour>
    <contour>
      <point x="45" y="750" type="line"/>
      <point x="45" y="701" type="line"/>
      <point x="56" y="699" type="line" smooth="yes"/>
      <point x="108" y="690"/>
      <point x="132" y="683"/>
      <point x="132" y="654" type="curve" smooth="yes"/>
      <point x="132" y="0" type="line"/>
      <point x="221" y="0" type="line"/>
      <point x="221" y="750" type="line"/>
    </contour>
    <contour>
      <point x="373" y="0" type="line"/>
      <point x="636" y="0" type="line"/>
      <point x="636" y="45" type="line"/>
      <point x="635" y="45" type="line"/>
      <point x="595" y="45"/>
      <point x="566" y="52"/>
      <point x="538" y="81" type="curve"/>
      <point x="452" y="55" type="line"/>
      <point x="452" y="48"/>
      <point x="401" y="45"/>
      <point x="373" y="45" type="curve"/>
      <point x="373" y="45" type="line"/>
    </contour>
    <contour>
      <point x="358" y="540" type="line"/>
      <point x="358" y="495" type="line"/>
      <point x="358" y="495" type="line"/>
      <point x="388" y="495"/>
      <point x="443" y="493"/>
      <point x="443" y="477" type="curve"/>
      <point x="489" y="446" type="line"/>
      <point x="525" y="481"/>
      <point x="565" y="495"/>
      <point x="607" y="495" type="curve"/>
      <point x="608" y="495" type="line"/>
      <point x="608" y="540" type="line"/>
    </contour>
    <contour>
      <point x="323" y="260" type="line"/>
      <point x="323" y="313" type="line"/>
      <point x="165" y="313" type="line"/>
      <point x="165" y="260" type="line"/>
    </contour>
  </outline>
</glyph>
<glyph name="s.srf" format="1">
  <advance width="521"/>
  <outline>
    <contour>
      <point x="291" y="-10" type="curve"/>
      <point x="400" y="-10"/>
      <point x="481" y="47"/>
      <point x="481" y="144" type="curve"/>
      <point x="481" y="254"/>
      <point x="389" y="279"/>
      <point x="302" y="300" type="curve" smooth="yes"/>
      <point x="222" y="319"/>
      <point x="150" y="328"/>
      <point x="150" y="401" type="curve" smooth="yes"/>
      <point x="150" y="449"/>
      <point x="180" y="480"/>
      <point x="244" y="480" type="curve" smooth="yes"/>
      <point x="309" y="480"/>
      <point x="351" y="445"/>
      <point x="373" y="376" type="curve"/>
      <point x="454" y="376" type="line"/>
      <point x="454" y="533" type="line"/>
      <point x="401" y="533" type="line"/>
      <point x="388" y="440" type="line"/>
      <point x="393" y="429"/>
      <point x="404" y="411"/>
      <point x="414" y="406" type="curve"/>
      <point x="400" y="479"/>
      <point x="335" y="540"/>
      <point x="239" y="540" type="curve" smooth="yes"/>
      <point x="139" y="540"/>
      <point x="69" y="479"/>
      <point x="69" y="392" type="curve" smooth="yes"/>
      <point x="69" y="279"/>
      <point x="161" y="251"/>
      <point x="247" y="231" type="curve" smooth="yes"/>
      <point x="324" y="212"/>
      <point x="396" y="198"/>
      <point x="396" y="134" type="curve"/>
      <point x="396" y="78"/>
      <point x="348" y="50"/>
      <point x="289" y="50" type="curve" smooth="yes"/>
      <point x="205" y="50"/>
      <point x="147" y="95"/>
      <point x="123" y="175" type="curve"/>
      <point x="40" y="175" type="line"/>
      <point x="40" y="0" type="line"/>
      <point x="97" y="0" type="line"/>
      <point x="107" y="131" type="line"/>
      <point x="102" y="139"/>
      <point x="90" y="143"/>
      <point x="80" y="141" type="curve"/>
      <point x="114" y="28"/>
      <point x="205" y="-10"/>
    </contour>
  </outline>
</glyph>
